<!-- <svg xmlns="http://www.w3.org/2000/svg" x="0px" y="0px" width="30" height="30" viewBox="0 0 50 50">
<path d="M 21 3 C 11.601563 3 4 10.601563 4 20 C 4 29.398438 11.601563 37 21 37 C 24.355469 37 27.460938 36.015625 30.09375 34.34375 L 42.375 46.625 L 46.625 42.375 L 34.5 30.28125 C 36.679688 27.421875 38 23.878906 38 20 C 38 10.601563 30.398438 3 21 3 Z M 21 7 C 28.199219 7 34 12.800781 34 20 C 34 27.199219 28.199219 33 21 33 C 13.800781 33 8 27.199219 8 20 C 8 12.800781 13.800781 7 21 7 Z"></path>
</svg> -->

<!-- <svg width="42" height="42" viewBox="0 0 42 42" fill="none" xmlns="http://www.w3.org/2000/svg"> 
<path d="M29.8594 29.8594L39.4219 39.4219" stroke="#D88769" stroke-width="4.5" stroke-linecap="round" stroke-linejoin="round"/> 
<path d="M17.9062 33.0469C26.2682 33.0469 33.0469 26.2682 33.0469 17.9062C33.0469 9.54431 26.2682 2.76562 17.9062 2.76562C9.54431 2.76562 2.76562 9.54431 2.76562 17.9062C2.76562 26.2682 9.54431 33.0469 17.9062 33.0469Z" stroke="#D88769" stroke-width="4.5" stroke-linecap="round" stroke-linejoin="round"/> 
</svg> -->

<svg xmlns="http://www.w3.org/2000/svg" x="0px" y="0px" width="200" height="200" viewBox="0,0,256,256"
style="fill:#FFFFFF;">
<g fill="#ffffff" fill-rule="nonzero" stroke="none" stroke-width="1" stroke-linecap="butt" stroke-linejoin="miter" stroke-miterlimit="10" stroke-dasharray="" stroke-dashoffset="0" font-family="none" font-weight="none" font-size="none" text-anchor="none" style="mix-blend-mode: normal"><g transform="scale(3.55556,3.55556)"><path d="M31,11c-11.027,0 -20,8.973 -20,20c0,11.027 8.973,20 20,20c3.97417,0 7.67238,-1.17843 10.78906,-3.18555l12.9375,12.9375c1.664,1.664 4.36239,1.664 6.02539,0c1.664,-1.664 1.664,-4.36139 0,-6.02539l-12.9375,-12.9375c2.00712,-3.11668 3.18555,-6.8149 3.18555,-10.78906c0,-11.027 -8.973,-20 -20,-20zM31,19c6.616,0 12,5.384 12,12c0,6.616 -5.384,12 -12,12c-6.616,0 -12,-5.384 -12,-12c0,-6.616 5.384,-12 12,-12z"></path></g></g>
</svg>

